<svg width="49" height="40" viewBox="0 0 49 40" fill="none" xmlns="http://www.w3.org/2000/svg">
<path d="M5.3654 21.1575H43.6852C44.4888 21.1575 45.142 21.843 45.072 22.6484C44.2321 32.2381 35.354 39.7841 24.5266 39.7841C13.6992 39.7841 4.82105 32.2381 3.98119 22.6484C3.90861 21.843 4.56183 21.1575 5.3654 21.1575Z" fill="#FF6633"/>
<path d="M31.4435 6.80835C31.8712 6.80835 32.2963 6.61547 32.5737 6.24533C33.9734 4.39466 36.633 3.24255 39.5128 3.24255C42.3927 3.24255 45.0523 4.39205 46.452 6.24533C46.9264 6.87352 47.8181 6.99342 48.4402 6.51642C49.0649 6.03941 49.1842 5.14275 48.7098 4.51717C46.7553 1.93143 43.3181 0.388336 39.5128 0.388336C35.7076 0.388336 32.2704 1.93143 30.3133 4.51717C29.8389 5.14535 29.9608 6.03941 30.5829 6.51642C30.8421 6.71452 31.1428 6.80835 31.4435 6.80835Z" fill="#414141"/>
<path d="M1.47374 6.80835C1.90145 6.80835 2.32656 6.61547 2.60392 6.24533C4.00369 4.39466 6.66323 3.24255 9.54312 3.24255C12.423 3.24255 15.0825 4.39205 16.4823 6.24533C16.9567 6.87352 17.8484 6.99342 18.4705 6.51642C19.0952 6.03941 19.2144 5.14275 18.7401 4.51717C16.7856 1.93143 13.3484 0.388336 9.54312 0.388336C5.73783 0.388336 2.30064 1.93143 0.343567 4.51717C-0.130798 5.14535 -0.00896454 6.03941 0.613152 6.51642C0.872368 6.71452 1.17305 6.80835 1.47374 6.80835Z" fill="#414141"/>
</svg>
